<svg width="23" height="29" viewBox="0 0 23 29" fill="none" xmlns="http://www.w3.org/2000/svg">
<path d="M10.1686 14.1849L0.501145 4.51741C-0.167048 3.84922 -0.167048 2.76874 0.501145 2.10765L2.10765 0.501145C2.77584 -0.167048 3.85632 -0.167048 4.51741 0.501145L11.3699 7.35367L18.2225 0.501145C18.8907 -0.167048 19.9711 -0.167048 20.6322 0.501145L22.253 2.10054C22.9211 2.76874 22.9211 3.84922 22.253 4.5103L12.5855 14.1778C11.9173 14.8531 10.8368 14.8531 10.1686 14.1849ZM12.5855 27.8331L22.253 18.1656C22.9211 17.4974 22.9211 16.4169 22.253 15.7558L20.6464 14.1493C19.9783 13.4811 18.8978 13.4811 18.2367 14.1493L11.377 20.9948L4.52452 14.1422C3.85633 13.474 2.77584 13.474 2.11476 14.1422L0.501145 15.7487C-0.167048 16.4169 -0.167048 17.4974 0.501145 18.1585L10.1686 27.826C10.8368 28.5013 11.9173 28.5013 12.5855 27.8331Z" fill="#89BC39"/>
</svg>
