<svg width="50" height="50" viewBox="0 0 50 50" fill="none" xmlns="http://www.w3.org/2000/svg">
<path d="M44.3548 15.8713C47.3286 15.8713 49.7278 13.2621 49.7278 10.0476C49.7278 7.56734 46.5323 2.55717 45.0706 0.394365C44.7077 -0.131455 43.9919 -0.131455 43.6391 0.394365C42.1774 2.55717 38.9819 7.56734 38.9819 10.0476C38.9819 13.2621 41.3811 15.8713 44.3548 15.8713ZM25 39.682C30.2319 39.682 36.623 36.418 37.4294 31.7451C37.6008 30.7629 36.6532 29.9097 35.6452 30.2272C33.0343 31.0506 29.1532 31.5269 25 31.5269C20.8468 31.5269 16.9758 31.0506 14.3548 30.2272C13.3669 29.9196 12.3992 30.753 12.5706 31.7451C13.377 36.418 19.7681 39.682 25 39.682ZM38.1351 22.9848C38.498 22.8756 38.7399 22.5383 38.7097 22.1613C38.377 17.9845 35.4637 15.0776 33.0645 15.0776C30.6653 15.0776 27.752 17.9845 27.4194 22.1613C27.3891 22.5284 27.6311 22.8756 27.994 22.9848C28.3468 23.0939 28.7399 22.9352 28.9315 22.6177L29.8891 20.9311C30.6653 19.5719 31.8246 18.7881 33.0645 18.7881C34.3044 18.7881 35.4637 19.5719 36.2399 20.9311L37.1976 22.6177C37.4093 22.9749 37.8226 23.0741 38.1351 22.9848ZM48.75 17.7365C46.2702 19.2941 44.1129 19.0163 44.0726 19.0163C44.7681 21.0204 45.1613 23.1634 45.1613 25.3956C45.1613 36.3386 36.1189 45.2379 25 45.2379C13.881 45.2379 4.83871 36.3386 4.83871 25.3956C4.83871 14.4526 13.881 5.55335 25 5.55335C29.0121 5.55335 32.7419 6.72404 35.8871 8.71819C36.0585 7.77568 36.5222 6.3272 37.621 4.18424C33.9113 2.04127 29.6069 0.79121 25 0.79121C11.1895 0.79121 0 11.8037 0 25.3956C0 38.9875 11.1895 50 25 50C38.8105 50 50 38.9875 50 25.3956C50 22.7169 49.5565 20.1473 48.75 17.7365ZM16.9355 18.7881C18.1754 18.7881 19.3347 19.5719 20.1109 20.9311L21.0686 22.6177C21.2802 22.9848 21.6935 23.084 22.006 22.9848C22.369 22.8756 22.6109 22.5383 22.5806 22.1613C22.248 17.9845 19.3347 15.0776 16.9355 15.0776C14.5363 15.0776 11.623 17.9845 11.2903 22.1613C11.2601 22.5284 11.502 22.8756 11.8649 22.9848C12.2177 23.0939 12.6109 22.9352 12.8024 22.6177L13.7601 20.9311C14.5363 19.562 15.6956 18.7881 16.9355 18.7881Z" fill="#89BC39"/>
</svg>
